<svg xmlns="http://www.w3.org/2000/svg" viewBox="0 0 700 700"><defs><style>.cls-1{fill:none;}</style></defs><g id="Layer_2" data-name="Layer 2"><g id="Layer_1-2" data-name="Layer 1"><path d="M266.362,0V304.492q52.944-55.424,132.388-55.437,47.163,0,86.465,17.791t67.021,47.989q27.714,30.212,43.442,71.159,15.708,40.957,15.721,87.291,0,47.163-16.136,88.535T550.17,633.8a215,215,0,0,1-68.263,48.4Q442.6,699.995,397.094,700q-82.746,0-130.732-60.4V686.76H116.6V0ZM455.016,475.77a96.949,96.949,0,0,0-28.134-68.677,103.212,103.212,0,0,0-30.614-21.1,91.364,91.364,0,0,0-38.06-7.862,93.545,93.545,0,0,0-37.235,7.447,92.194,92.194,0,0,0-30.2,20.684,105.213,105.213,0,0,0-20.685,31.031,92,92,0,0,0-7.862,37.646,93.542,93.542,0,0,0,7.448,37.235,91.958,91.958,0,0,0,20.687,30.2,104.827,104.827,0,0,0,31.028,20.684,91.96,91.96,0,0,0,37.646,7.862,93.537,93.537,0,0,0,37.234-7.448,92.129,92.129,0,0,0,30.2-20.687,107.118,107.118,0,0,0,20.684-30.613A87.4,87.4,0,0,0,455.016,475.77Z"/><rect class="cls-1" width="700" height="700"/></g></g></svg>